HIERARCHY
ROOT Hips
{
	OFFSET -3.958830 18.904000 13.208200
	CHANNELS 6 Xposition Yposition Zposition Zrotation Yrotation Xrotation 
	JOINT LHipJoint
	{
		OFFSET 0.000000 0.000000 0.000000
		CHANNELS 3 Zrotation Yrotation Xrotation
		JOINT LeftUpLeg
		{
			OFFSET 1.800000 -1.400000 0.085000
			CHANNELS 3 Zrotation Yrotation Xrotation
			JOINT LeftLeg
			{
				OFFSET 2.215000 -6.000000 0.000000
				CHANNELS 3 Zrotation Yrotation Xrotation
				JOINT LeftFoot
				{
					OFFSET 2.500000 -6.900000 0.000000
					CHANNELS 3 Zrotation Yrotation Xrotation
					JOINT LeftToeBase
					{
						OFFSET 0.200000 -0.500000 1.950000
						CHANNELS 3 Zrotation Yrotation Xrotation
						End Site
						{
							OFFSET 0.000000 0.000000 0.000000
						}
					}
				}
			}
		}
	}
	JOINT RHipJoint
	{
		OFFSET 0.000000 0.000000 0.000000
		CHANNELS 3 Zrotation Yrotation Xrotation
		JOINT RightUpLeg
		{
			OFFSET -1.800000 -1.400000 0.085000
			CHANNELS 3 Zrotation Yrotation Xrotation
			JOINT RightLeg
			{
				OFFSET -2.215000 -6.000000 0.000000
				CHANNELS 3 Zrotation Yrotation Xrotation
				JOINT RightFoot
				{
					OFFSET -2.500000 -6.900000 0.000000
					CHANNELS 3 Zrotation Yrotation Xrotation
					JOINT RightToeBase
					{
						OFFSET -0.200000 -0.500000 1.950000
						CHANNELS 3 Zrotation Yrotation Xrotation
						End Site
						{
							OFFSET 0.000000 0.000000 0.000000
						}
					}
				}
			}
		}
	}
	JOINT LowerBack
	{
		OFFSET 0.000000 0.000000 0.000000
		CHANNELS 3 Zrotation Yrotation Xrotation
		JOINT Spine
		{
			OFFSET -0.087000 1.940000 -0.288900
			CHANNELS 3 Zrotation Yrotation Xrotation
			JOINT Spine1
			{
				OFFSET 0.000000 1.950000 0.060000
				CHANNELS 3 Zrotation Yrotation Xrotation
				JOINT Neck
				{
					OFFSET 0.000000 0.000000 0.000000
					CHANNELS 3 Zrotation Yrotation Xrotation
					JOINT Neck1
					{
						OFFSET 0.000000 1.600000 0.340000
						CHANNELS 3 Zrotation Yrotation Xrotation
						JOINT Head
						{
							OFFSET 0.000000 1.667000 -0.240000
							CHANNELS 3 Zrotation Yrotation Xrotation
							End Site
							{
								OFFSET 0.000000 0.000000 0.000000
							}
						}
					}
				}
				JOINT LeftShoulder
				{
					OFFSET 0.000000 0.000000 0.000000
					CHANNELS 3 Zrotation Yrotation Xrotation
					JOINT LeftArm
					{
						OFFSET 2.700000 1.550000 -0.730000
						CHANNELS 3 Zrotation Yrotation Xrotation
						JOINT LeftForeArm
						{
							OFFSET 5.450000 0.000000 0.000000
							CHANNELS 3 Zrotation Yrotation Xrotation
							JOINT LeftHand
							{
								OFFSET 3.450000 0.000000 0.000000
								CHANNELS 3 Zrotation Yrotation Xrotation
								JOINT LeftHandIndex1
								{
									OFFSET 0.750000 0.000000 0.000000
									CHANNELS 3 Zrotation Yrotation Xrotation
									End Site
									{
										OFFSET 0.000000 0.000000 0.000000
									}
								}
							}
						}
					}
				}
				JOINT RightShoulder
				{
					OFFSET 0.000000 0.000000 0.000000
					CHANNELS 3 Zrotation Yrotation Xrotation
					JOINT RightArm
					{
						OFFSET -2.700000 1.550000 -0.730000
						CHANNELS 3 Zrotation Yrotation Xrotation
						JOINT RightForeArm
						{
							OFFSET -5.450000 0.000000 0.000000
							CHANNELS 3 Zrotation Yrotation Xrotation
							JOINT RightHand
							{
								OFFSET -3.450000 0.000000 0.000000
								CHANNELS 3 Zrotation Yrotation Xrotation
								JOINT RightHandIndex1
								{
									OFFSET -0.750000 0.000000 0.000000
									CHANNELS 3 Zrotation Yrotation Xrotation
									End Site
									{
										OFFSET 0.000000 0.000000 0.000000
									}
								}
							}
						}
					}
				}
			}
		}
	}
}
MOTION
Frames: 14
Frame Time: 0.016667
-0.202490 13.240460 -0.654540 -55.901959 17.680094 -57.852244 -15.750234 13.252709 5.187722 5.460299 -7.984186 -31.095561 -21.675188 20.196062 45.992572 0.677374 11.288761 0.649294 -0.045420 -0.383960 0.074440 17.776110 -9.504408 2.439669 -1.188572 8.112640 -19.002735 -31.823667 8.942872 46.407216 -1.268186 -7.580844 1.802119 -0.149170 0.428730 0.019070 -2.033845 -4.940812 -8.449096 4.081371 3.225032 63.275875 2.036521 7.477026 16.522544 4.659470 5.057910 -15.453698 4.754464 -3.895627 48.590380 14.908650 -6.421500 -15.082890 -22.499936 -28.694163 11.656068 -27.674264 1.497739 -3.880553 16.300243 -4.842447 -2.391176 -3.762266 2.497645 0.910460 -0.036470 -0.001640 -0.029460 12.168561 30.084184 10.636242 2.003906 -19.763397 -23.682383 -64.755900 32.245209 -21.577945 2.522084 -1.294307 -0.545700 0.589370 0.374930 -0.230030 
-0.159870 13.235830 -0.703670 -56.765075 15.644675 -59.763202 -15.593584 13.227898 4.902398 5.650464 -7.042697 -29.922161 -17.878118 19.344042 48.443749 0.594056 11.290112 0.616160 -0.045440 -0.413470 0.098110 17.896072 -9.711945 2.601122 -1.520391 9.112676 -19.851995 -22.162011 4.688646 52.933339 -1.190402 -7.514894 1.774520 -0.161580 0.408270 0.040720 -2.492058 -4.137465 -8.438030 8.615786 -0.013970 65.547732 -1.100085 6.403324 16.766822 5.175296 4.536695 -15.712961 3.702690 -3.292251 49.535867 15.415520 -6.262290 -16.385990 -23.071761 -29.506168 11.888313 -26.755036 2.087818 -3.913058 16.427041 -4.723454 -2.407338 -3.759043 2.498165 0.959450 -0.062960 0.019870 -0.055150 11.728368 30.344738 10.367107 1.539398 -18.662866 -24.105075 -63.370219 33.912013 -21.573771 2.538041 -1.267416 -0.552840 0.580480 0.396940 -0.250090 
-0.122900 13.245700 -0.761040 -56.322292 13.982801 -60.667907 -15.476852 13.006633 4.590001 5.105049 -6.074240 -29.012218 -15.600969 19.572941 51.060036 0.605472 11.561368 0.504162 -0.004980 -0.348150 0.089010 18.016148 -9.642188 2.921384 -4.412913 11.164904 -21.542426 -5.371309 -4.952546 58.602618 -1.188604 -8.010362 1.570638 -0.100800 0.399920 0.034230 -2.866237 -3.383843 -8.539728 11.939140 -2.013462 65.766440 -4.352161 5.761396 18.915753 6.052776 4.384930 -16.211941 3.496070 -2.411303 50.849305 15.377010 -5.826990 -16.877840 -23.960224 -30.573791 12.056246 -23.877349 1.881948 -3.238749 16.218454 -3.087194 -2.173800 -3.803357 2.493370 0.963570 -0.069040 0.022580 -0.048310 10.753941 30.936377 10.115073 1.498676 -15.987586 -25.107069 -62.961614 33.976068 -21.739957 2.543167 -1.303246 -0.555350 0.599660 0.404710 -0.250480 
-0.114050 13.232180 -0.827040 -57.702914 13.356731 -61.459669 -15.411695 12.619512 4.138780 3.167355 -6.059735 -30.053016 -9.835802 17.235170 54.011345 0.545953 11.205061 0.610473 0.038960 -0.267800 0.062720 18.154984 -9.075634 3.715282 -9.495220 14.384796 -24.129964 11.873711 -17.749137 64.603457 -1.880461 -10.851807 0.706070 -0.072660 0.401990 0.051990 -3.168116 -3.102776 -8.837650 15.686742 -5.072055 65.916187 -6.767704 3.879384 20.206121 7.030149 3.098984 -16.790093 0.842595 -1.141344 51.127503 15.669000 -6.304940 -16.922720 -24.159896 -31.653325 12.461909 -22.968814 2.259210 -3.090452 16.274230 -2.404126 -2.031879 -3.799547 2.556480 0.917350 -0.077290 0.035620 -0.015150 9.204484 32.176985 9.884803 0.423025 -14.174221 -26.077672 -64.013650 33.981131 -22.256458 2.604115 -1.367308 -0.495820 0.587020 0.381640 -0.198180 
-0.116460 13.228520 -0.853970 -57.165972 13.637917 -61.391418 -15.457806 12.392003 3.597626 -1.237293 -5.834516 -30.882578 -2.493653 12.989550 53.436676 0.254598 9.964406 0.989996 0.089210 -0.199330 0.047880 18.181750 -8.233064 4.736978 -17.795097 17.023009 -26.487099 30.590465 -33.054101 66.922269 -2.821421 -13.979967 -0.088029 -0.034750 0.404770 0.084380 -3.130722 -3.559346 -9.121595 15.254328 -4.446317 65.771362 -7.062643 3.189512 21.024209 7.686996 2.920610 -17.158078 0.632082 -0.165937 52.162135 15.143770 -5.906360 -16.331970 -25.038511 -32.156370 12.696924 -22.272387 3.426616 -3.300329 17.086372 -2.238258 -2.042386 -3.825790 2.618209 0.898030 -0.061190 0.041650 0.014530 8.760240 33.244644 9.660861 -2.253210 -11.176404 -26.228567 -63.912957 34.374042 -22.492919 2.600467 -1.412348 -0.459340 0.566440 0.369070 -0.178600 
-0.118400 13.236180 -0.858400 -54.420033 15.986029 -60.823124 -15.636708 12.153501 3.514617 -7.966304 -6.635879 -31.808980 4.049079 9.904671 54.007568 0.176655 9.323383 1.200065 0.144580 -0.118420 0.049990 18.088606 -7.347516 5.452344 -27.220279 16.287050 -26.837729 53.916736 -48.583155 60.852103 -3.192629 -14.421965 -0.149988 0.014320 0.392360 0.093620 -2.710075 -4.610734 -9.409872 10.396321 -0.632869 65.666488 -5.142449 3.172547 21.755493 7.723637 2.751831 -17.341358 0.278996 0.746668 53.778991 15.077090 -5.645250 -15.902220 -26.009080 -32.547627 13.009073 -21.634468 4.576629 -3.278911 17.232459 -1.960493 -1.956191 -3.831940 2.662546 0.874210 -0.063280 0.050060 0.034550 9.550192 35.097387 9.415474 -6.334091 -8.438855 -26.213636 -63.942184 34.701218 -22.641951 2.626230 -1.439090 -0.427220 0.554160 0.348550 -0.161170 
-0.100110 13.227740 -0.876860 -50.885452 16.076910 -60.542312 -15.694725 12.217575 3.617019 -11.019092 -6.564364 -32.806574 6.283896 8.859600 52.668556 0.096352 8.865221 1.332974 0.193480 -0.073310 0.112120 18.004669 -7.366114 5.346030 -29.882067 14.670883 -24.088853 75.312345 -54.837249 48.709905 -2.972626 -12.784317 0.244022 0.037740 0.345500 0.106930 -2.505160 -4.920827 -9.381568 7.589241 2.001002 66.013083 -5.009266 4.190899 22.097091 8.104211 2.833372 -17.704978 0.347077 1.241038 55.625509 14.411730 -5.223860 -16.371680 -27.017217 -33.016003 13.296013 -21.185196 5.557082 -3.302813 17.121752 -2.161245 -1.947600 -3.805767 2.681675 0.888990 -0.094470 0.089120 0.027060 9.599207 36.947090 9.041665 -9.218487 -5.770433 -26.721720 -62.367011 35.571399 -22.209835 2.708429 -1.455831 -0.404880 0.542170 0.324430 -0.170390 
-0.102550 13.181840 -0.896240 -47.565263 14.737332 -59.486873 -15.646927 12.076692 3.934073 -12.546739 -7.186841 -36.975025 9.290566 7.657980 53.935561 0.094641 8.923177 1.295961 0.202970 -0.069440 0.111760 18.019888 -7.714313 4.933489 -29.836691 13.313658 -20.962800 91.970765 -53.599131 36.321550 -2.762350 -11.689371 0.526424 0.040040 0.345610 0.117050 -2.619551 -4.388066 -9.331378 7.196428 2.860233 65.622525 -6.531762 5.747257 21.499565 8.394085 2.672346 -17.767474 0.225497 1.612956 56.334114 14.127000 -5.269630 -15.718900 -27.653227 -32.667884 13.238465 -20.263192 5.463356 -2.986119 16.781048 -1.973821 -1.876170 -3.816191 2.695735 0.880120 -0.089370 0.083290 0.030600 9.557266 37.641204 8.341605 -10.974443 -2.462107 -26.712109 -61.594293 36.063473 -21.926312 2.711337 -1.448562 -0.395020 0.528310 0.325090 -0.168080 
-0.175220 13.134840 -0.878940 -41.021551 13.259888 -56.362847 -15.744580 11.714470 4.117913 -13.633692 -7.576888 -43.913205 11.194021 7.938286 56.278464 0.153694 9.431528 1.129331 0.159380 -0.095080 0.039210 18.016775 -7.346126 5.018605 -32.944678 13.473350 -21.163854 104.611191 -45.659261 25.406600 -2.659466 -11.231812 0.673701 0.048080 0.435570 0.115600 -2.425019 -4.326037 -9.472159 2.037992 8.103862 63.410202 -5.482956 9.298568 20.874103 8.027652 1.868315 -16.681067 -0.238125 2.028177 53.477134 13.720420 -4.862540 -15.251320 -26.585518 -30.410944 12.489904 -21.139347 3.870262 -2.711536 17.019822 -2.167508 -1.919022 -3.871654 2.682614 0.835870 -0.031700 0.028500 0.050490 8.996309 38.324575 7.688372 -12.826366 1.890542 -26.170874 -60.977718 34.772734 -21.182864 2.655073 -1.399259 -0.425890 0.569270 0.362470 -0.139160 
-0.222650 13.079540 -0.875960 -37.001257 12.670212 -53.968378 -15.849087 11.301591 4.312772 -15.744936 -8.523414 -49.913555 16.030546 6.065370 57.099200 0.176291 9.518273 1.077343 0.174450 -0.057840 0.020600 18.036325 -6.864643 5.256314 -37.409516 13.419791 -21.354004 110.687759 -40.347532 19.931901 -2.595399 -10.884822 0.779069 0.067870 0.447510 0.140470 -2.246760 -4.381814 -9.641153 -1.249521 11.467378 61.072239 -4.622948 11.244593 21.057707 7.926031 1.927303 -16.491882 0.587006 2.007306 52.145682 13.325420 -4.343520 -14.929450 -24.754433 -29.655852 12.310041 -22.685926 2.412212 -2.388680 16.693517 -1.874955 -1.836316 -3.890703 2.719504 0.796140 -0.005800 0.022380 0.063730 7.220649 39.056489 7.291648 -12.028600 4.424639 -26.613118 -61.132236 34.937570 -21.757072 2.665415 -1.429241 -0.398440 0.546220 0.358550 -0.119480 
-0.242850 12.965410 -0.880290 -34.106334 11.510257 -51.296281 -15.837411 10.634166 4.675862 -18.159745 -10.346936 -57.045205 22.936441 2.852156 57.656376 0.275899 9.810124 0.990325 0.156260 -0.053360 -0.030570 18.178845 -6.604929 5.444958 -41.731357 13.501961 -23.119783 115.658332 -38.889466 17.045352 -2.548251 -10.728078 0.863149 0.069120 0.491580 0.145700 -2.437078 -3.674046 -9.874260 -0.802967 11.836078 59.034162 -6.576275 12.029484 20.270664 8.259522 1.909872 -16.398013 1.262854 2.231363 51.280001 12.964420 -4.171330 -13.082670 -23.732598 -28.718136 11.993268 -22.971577 1.458003 -1.982680 16.014161 -1.640926 -1.679157 -3.936102 2.737747 0.728790 0.040620 -0.016640 0.082260 5.567956 38.528861 6.368529 -11.220052 8.191117 -25.787566 -59.262785 34.176238 -21.022685 2.618023 -1.445452 -0.382560 0.532930 0.362410 -0.088020 
-0.291380 12.929990 -0.868730 -29.886692 10.279950 -50.421217 -15.874950 10.423572 4.554248 -19.961909 -10.254478 -62.036201 29.983211 0.316762 58.459198 0.456828 10.517400 0.758107 0.172220 -0.034560 -0.019810 18.245018 -6.217747 5.834009 -45.903274 14.512253 -24.080773 119.202412 -35.130534 14.741412 -2.498865 -10.397058 0.961962 0.074160 0.480940 0.148640 -2.428561 -3.548464 -9.978308 -3.393441 14.969515 58.665282 -6.599369 13.982448 19.834718 7.941719 1.591985 -16.469486 0.774534 2.278619 50.480606 13.713490 -4.131410 -13.661370 -22.179872 -28.429069 11.900155 -23.906444 0.555917 -1.811406 16.177336 -0.878342 -1.564061 -3.933924 2.745658 0.732020 0.025820 -0.003390 0.085760 4.505377 39.726731 5.961244 -12.226540 9.212676 -25.821848 -55.807426 33.381848 -19.072898 2.722313 -1.487111 -0.371080 0.526260 0.349860 -0.082560 
-0.330320 12.900650 -0.856660 -27.753090 9.313289 -50.360166 -15.869467 10.170394 4.545134 -21.032775 -10.746161 -66.544199 38.251261 -3.259830 59.666868 0.763796 11.727305 0.377498 0.148610 -0.066390 -0.026130 18.326605 -5.978553 6.089353 -48.646736 15.231926 -24.009654 121.817196 -32.245929 13.017313 -2.438159 -10.067663 1.045999 0.043960 0.457850 0.157790 -2.527837 -3.235419 -10.125536 -3.862817 16.275359 59.377979 -7.171460 15.344252 19.369966 7.708032 1.956695 -17.411321 1.262386 1.651287 50.929301 14.839340 -4.431650 -13.750090 -20.565139 -29.224858 12.204849 -24.513990 0.069704 -1.530736 15.545517 0.053497 -1.386781 -3.934090 2.734924 0.760160 0.005920 0.016320 0.061810 3.373490 40.973111 6.135121 -11.645424 8.271299 -26.670418 -53.849670 33.083684 -17.899296 2.918900 -1.546420 -0.366140 0.497820 0.365330 -0.090510 
-0.359420 12.847080 -0.853300 -25.584545 8.246332 -50.252749 -15.859984 9.803669 4.605196 -22.111274 -12.058396 -71.481918 48.427469 -8.135436 61.599088 1.281694 13.648540 -0.163962 0.133130 -0.082160 -0.054120 18.431413 -5.672173 6.366183 -51.455647 15.995061 -24.528863 125.054966 -29.314058 11.474291 -2.373342 -9.707615 1.148558 0.020700 0.442090 0.174080 -2.663796 -2.855943 -10.324480 -4.131590 17.207155 60.526893 -7.971182 16.385859 18.481835 7.555586 1.813238 -17.779160 0.926320 1.147080 50.464619 16.606470 -5.005830 -14.543320 -19.283416 -29.047338 12.090895 -25.494312 -0.340337 -1.584007 15.696534 -0.215333 -1.379996 -3.909117 2.766692 0.783010 -0.015660 0.035050 0.051470 2.450886 41.463924 6.100771 -12.588259 7.927412 -26.272472 -50.605094 31.403023 -15.599944 3.013079 -1.571642 -0.351020 0.464630 0.379480 -0.083560 
